<?xml version="1.0" encoding="utf-8"?>
<!-- Generator: Adobe Illustrator 23.0.3, SVG Export Plug-In . SVG Version: 6.00 Build 0)  -->
<svg version="1.1"
	 id="svg1707" xmlns:cc="http://creativecommons.org/ns#" xmlns:dc="http://purl.org/dc/elements/1.1/" xmlns:rdf="http://www.w3.org/1999/02/22-rdf-syntax-ns#"
	 xmlns="http://www.w3.org/2000/svg" xmlns:xlink="http://www.w3.org/1999/xlink" x="0px" y="0px" viewBox="0 0 640 480"
	 style="enable-background:new 0 0 640 480;" xml:space="preserve">
<style type="text/css">
	.st0{fill:#006233;}
	.st1{fill-rule:evenodd;clip-rule:evenodd;fill:#FFFFFF;stroke:#FFFFFF;stroke-width:0.4008;}
	.st2{fill-rule:evenodd;clip-rule:evenodd;fill:#FFFFFF;stroke:#FFFFFF;}
	
		.st3{fill-rule:evenodd;clip-rule:evenodd;fill:#FFFFFF;stroke:#FFFFFF;stroke-width:4.008;stroke-linecap:round;stroke-linejoin:round;}
	.st4{fill:#FFFFFF;}
	.st5{fill:#FFFFFF;stroke:#000000;stroke-width:1.1;}
	.st6{fill:none;stroke:#F7C608;stroke-width:8.1208;stroke-linecap:round;stroke-linejoin:round;}
	.st7{fill:#F7C608;}
</style>
<g id="g13237" transform="translate(-2.7257 -5.6087)">
	<path class="st0" d="M642.7,485.6V5.6l-640,0v480L642.7,485.6L642.7,485.6z"/>
	<g id="g13004" transform="matrix(1.1437 0 0 1.1446 -.39167 -145.67)">
		<g id="g9244" transform="matrix(1.7598 0 0 1.6 -2175.2 -3398.1)">
			<path id="path3159" class="st1" d="M1370.1,2341.7c-4.1,6.2-1.2,10.3,3.1,10.6c2.8,0.2,8.7-4,8.6-8.9l-1.6-0.9
				c0.9,2.5,0,3.3-1.9,5.1C1374.6,2350.9,1366.9,2351.2,1370.1,2341.7z"/>
			<path id="path3115" class="st2" d="M1402.9,2358c23.3,0.7,30.7-22,16.3-41.4l-1.4,2.1c0.9,9,2.3,17.9,2.4,27.2
				c-2.8,3.3-6.9,2.1-7.7-1.6c0-5-1.6-9.2-3.6-13.3l-1.2,2.1c1.3,3.3,2.8,7.1,3.1,11.2c-6.6,8-14,9.6-11.3-0.9
				c-5.3,9.2,2.7,15.7,11.7,1.5c1.9,9.7,9.4,3.7,9.9,1.6c0.8-6.4,0.4-16.6-1.2-24.7c6.5,11.3,6.7,19.4,3.3,24.9
				C1419.3,2352.8,1411,2355.7,1402.9,2358L1402.9,2358z"/>
			<path id="path3117" class="st2" d="M1416.1,2332.4c-5,0.4-7.5-0.7-4.8-4.4c2.7-3.6,5.2-0.7,5.8,4.1c0.6,4.5-8.8,10.3-12,10.3
				c-4.9,0-7.2-6.3-2.7-12C1396.7,2347.1,1415,2337.5,1416.1,2332.4z M1412.7,2328.6c-0.6,0-1.1,1-0.8,1.3c0.9,0.6,2.3,0.2,2.4-0.1
				C1414.7,2329.1,1413.5,2328.6,1412.7,2328.6L1412.7,2328.6z"/>
			<path id="path3140" class="st2" d="M1389.1,2340.3c-4.8,9.5,0,13.4,6.1,12.3c3.6-0.7,8.1-3.2,10.7-6.7c0-7.7-0.1-15.3-0.7-22.7
				c2.4-2.9-0.2-2.9-1.1-5.9c-0.4,1.8-1.4,3.7-0.4,5.1c0.7,7.5,1.1,15.1,1.1,22.8c-4.8,3.9-8.5,5.3-11,5.3
				C1388.3,2350.5,1387.1,2345.9,1389.1,2340.3L1389.1,2340.3z"/>
			<path id="path3150" class="st2" d="M1398.9,2342.8c-0.1-7.1-0.2-15.2-0.8-20.2c2.5-2.8-0.1-2.8-0.9-6c-0.5,1.8-1.5,3.7-0.6,5.1
				c0.4,7.6,0.8,15.3,0.9,22.9C1397.9,2344.3,1398.6,2344.1,1398.9,2342.8L1398.9,2342.8z"/>
			<path id="path3152" class="st1" d="M1380.3,2342.5c-0.6-0.8-1-1.6-1.5-2.4c-0.1-1.1,0.6-2.1,0.7-2.6c0.8,1.3,1.3,2.2,1.9,2.9
				 M1382.3,2340.8c1.2,0.5,2.7,0.5,4,0.5c5.2,0.1,10.8-0.8,10.2,6.4c-0.5,6.3-5.7,10-10.4,9.9c-6.7-0.1-12.4-7.4-2.1-21
				c1-0.2,2.3,0.1,3.4,0.2c1.8,0.1,3.7,0,5.9-1.8c-0.3-4.5-0.3-8.7-0.8-12.8c-0.9-1.4,0.1-3.3,0.6-5.1c0.8,3.1,3.4,3.2,0.9,6
				c0.6,4.5,0.7,9.1,0.7,11.8c-1.2,1.9-2.2,3.9-5.9,4.7c-3.7-0.5-5.4-5.8-9.3-4c1.1-4.7,10.9-5.8,11.9-2.1
				c-0.7,3.9-9.9,2.3-12.3,14.9c-0.8,3.9,3.3,7.4,7.5,7.1c4.1-0.3,8.4-3.1,8.9-7.9c0.3-4-5.3-3.5-7.6-3.5c-3.4,0.1-5.6-0.4-6.9-1.2
				 M1384.4,2334.3c0.6-0.6,2.7-1,3.5,0c-0.6,0.4-1.1,0.8-1.6,1.3C1385.5,2335.1,1385,2334.7,1384.4,2334.3z"/>
			<path id="path3161" class="st2" d="M1389.6,2321c0.6,1.3,0.8,2.1,0.8,3.4c-0.4,1.7-1.8,3.2-3.2,3.3c-0.9,0-1.9-0.2-2.7-1.7
				c-0.1-0.2-0.5-0.6-0.8-0.4c-1.6,2.7-2.8,3.8-4.3,3.8c-2.9,0-2-2.6-4.7-3.5c-1.1,0-3,1.1-3.9,3.3c-3.6,10.2-6.8,0-5.5-4.8
				c0.2,4.5,1.3,7.2,2.4,7.2c0.8-0.1,1.5-2,2.6-4c0.8-1.5,2.7-4.3,4.7-4.3c1.9,0,0.7,3.5,4.4,3.4c1.8,0,3.4-1.4,5.1-4.2
				c0.4-0.1,0.5,0.6,0.5,0.8c0.3,0.9,1.9,3.5,4.1,1.2c-0.1-0.5-0.1-1.4-0.6-1.5L1389.6,2321z"/>
			<path id="path3163" class="st1" d="M1401.3,2312.5c-2,1-3.4,0.1-4.2-0.8c1.4-0.3,2.5-0.8,2.8-1.9c-0.6-1.4-2.2-2.1-4.3-2.1
				c-2.9,0.1-4.3,1.2-4.5,2.8c1.3,0,2.5-0.3,3,1c-2.3,1.2-5.1,1.6-8.1,1.6c-4.9,0.3-5.6-2-6.9-3.9c-0.1-0.1-0.5-0.3-0.8-0.3
				c-1.5,0-2.6,5.3-4.3,5.3c-1.7-0.2-1.3-3.4-1.8-5.3c-0.4,2.9,0.5,13.6,5.8,2c0.2-0.4,0.4-0.3,0.5,0c1.4,3.2,4.3,4.4,7.4,4.5
				c2.6,0.1,5.9-1,9.5-3c0.9,1,1.7,2.2,3.7,2.5c2.3,0.1,4.8-1.6,5.4-3.7c0.3-1.1,0.3-3.2-0.8-3.2c-1.6,0-2.7,3.8-2.4,7.3
				c0,0,0.2-0.9,0.2-0.9 M1394.5,2309.8c1-0.5,2-0.7,2.8,0.4c-0.6,0.2-1,0.4-1.3,0.6C1395.6,2310.4,1394.9,2310.2,1394.5,2309.8z
				 M1402.1,2312.2c0.3-1.1,0.4-2.1,1.3-2.6C1403.7,2310.7,1403.7,2311.4,1402.1,2312.2z"/>
			<path id="path3169" class="st1" d="M1408.4,2313.9c-0.3-1-0.6-1.8-0.7-2.9c-0.2-2.2,1.6-3.4,3.3-3.2c1.7,0.2,2.8,0.8,4.5,1.4
				c1.3,0.4,3,0.8,4.7,1.2c0.9,0.4,0,1.5-0.2,1.7c-4.1,1.6-7,4.2-9.7,4.3c-1.6,0.1-3-0.9-4.2-3c-0.1-4.1-0.2-8.9-0.6-11.9
				c0.6-0.6,0.7-1.1,1-1.6c0.3,4,0.4,8.1,0.5,12.3C1407.2,2313,1407.6,2313.6,1408.4,2313.9L1408.4,2313.9z M1411,2314.3
				c-2.2,0.6-1.9-1.3-2.1-2.4c-0.2-1.3-0.1-2.9,1.6-2.5c2.2,0.6,4.3,1.4,6.2,2.2L1411,2314.3z"/>
			<path id="path3173" class="st1" d="M1408.8,2316.2l0.3,1.5h0.2l-0.1-1.4"/>
			<path id="path5196" class="st3" d="M1373.7,2331.8l1.1-1.2l1.3,1.1l-1.2,1.1L1373.7,2331.8z"/>
			<path id="path6168" class="st3" d="M1376.5,2331.5l1.1-1.2l1.3,1.1l-1.2,1.1L1376.5,2331.5z"/>
			<path id="path6170" class="st3" d="M1368.6,2319.5l1.1-1.2l1.3,1.1l-1.2,1.1L1368.6,2319.5z"/>
			<path id="path6172" class="st3" d="M1369.1,2322.9l1.1-1.2l1.3,1.1l-1.2,1.1L1369.1,2322.9z"/>
			<path id="path6174" class="st3" d="M1389.7,2328.6l1-0.9l1,1l-1.1,0.8L1389.7,2328.6z"/>
			<path id="path6176" class="st3" d="M1375.9,2306.8l0.7-0.8l0.8,0.7l-0.8,0.7L1375.9,2306.8z"/>
			<path id="path6178" class="st3" d="M1377.8,2306.6l0.7-0.8l0.8,0.7l-0.8,0.7L1377.8,2306.6z"/>
			<path id="path6180" class="st3" d="M1417.1,2315.2l-0.7,0.6l-0.7-0.7l0.7-0.5L1417.1,2315.2z"/>
			<path id="path9240" class="st1" d="M1384,2336.5l-0.1,1.3l2,0.2l1.6-1.2L1384,2336.5L1384,2336.5z"/>
			<path id="path9242" class="st2" d="M1401,2312.8l0.6-0.1l-0.1,1.7l-0.4,0.1L1401,2312.8L1401,2312.8z"/>
		</g>
		<path id="path2722" class="st4" d="M282.5,408.8c39.9,0,72.4-29.7,72.4-66.1c0-20.1-9.8-38-25.2-50.1c9.3,9.9,14.9,23,14.9,37.3
			c0,31.7-27.8,57.3-62.1,57.3c-34.3,0-62.1-25.7-62.1-57.3c0-14.3,5.6-27.3,14.9-37.3c-15.4,12.1-25.2,30-25.2,50.1
			C210.1,379.2,242.6,408.8,282.5,408.8L282.5,408.8z"/>
		<g id="g2908" transform="matrix(1.1355 0 0 1.0324 2.7256 -21.429)">
			<path id="path2910" class="st5" d="M237.8,452.4c-14.1,7.1-31.6,5.1-46.5-4.5c-0.6-0.3-1,0.2-0.3,1.9c1.6,4.7,2.9,8.3-1.9,15.2
				c-2.1,3,0.3,3.5,3.8,3.2c17.9-1.8,35.5-5.8,44-9.1L237.8,452.4z"/>
			<path id="path2912" class="st5" d="M237.5,460.7c-5.6,2.2-15.2,5-25.9,6.9c-4.3,0.6-4.2,3.4,3.5,4.3c7.8,0.8,17.9-4.8,24-9.8
				L237.5,460.7z"/>
			<path id="path2914" class="st5" d="M246.4,445.3c1.9,0,5.4-0.8,9-1.3c6.6-1.1,1.8,9-9,9v3.4c10.9,0,22.2-11.9,19.8-17.2
				c-3.4-7.7-12.6-1.1-19.8-1.1s-16.5-6.6-19.8,1.1c-2.4,5.3,9,17.2,19.8,17.2V453c-10.7,0-15.5-10.1-9-9
				C241,444.5,244.5,445.3,246.4,445.3z"/>
			<path id="path2916" class="st5" d="M255,452.4c14.1,7.1,31.6,5.1,46.5-4.5c0.6-0.3,1,0.2,0.3,1.9c-1.6,4.7-2.9,8.3,1.9,15.2
				c2.1,3-0.3,3.5-3.8,3.2c-17.9-1.8-35.5-5.8-44-9.1L255,452.4z"/>
			<path id="path2918" class="st5" d="M255.4,460.7c5.6,2.2,15,5,25.9,6.9c4.3,0.6,4.2,3.4-3.5,4.3c-7.8,0.8-17.9-4.8-24-9.8
				L255.4,460.7z"/>
			<path id="path2920" class="st5" d="M246.9,459.1c0.3,2.7,0.8,8.7,4.5,6.1c5-3.4,6.1-5.9,6.1-10.8c0-3-3.7-7.5-11-7.5
				s-11,4.5-11,7.5c0,4.8,1.1,7.4,6.1,10.8c3.7,2.6,4-3.4,4.5-6.1C246.1,458.2,246.9,458.5,246.9,459.1z"/>
		</g>
		<g id="g2724" transform="matrix(1.1355 0 0 1.0324 2.7256 -21.429)">
			<path id="path2726" class="st5" d="M241.8,253.5c-2.1-11.9-19.5-12.7-22.2-14.6c-3.2-2.1-2.7,0-1.6,3.2
				c3.2,8.3,14.1,11.7,19,12.7C241,255.5,242.2,255.8,241.8,253.5z"/>
			<path id="path2728" class="st5" d="M247,253.9c1.8-12.2-15.5-18-17.6-20.7c-2.4-2.9-2.7-1.1-1.6,2.2c2.1,7.2,9.6,15.7,14.1,18
				C245.6,255.3,246.7,256.1,247,253.9z"/>
			<path id="path2730" class="st5" d="M261.3,260.9c1.6-14.6-12.5-16.9-16.1-21.5c-2.4-2.9-2.6-1.3-1.8,2.1
				c1.6,7.4,8.6,16.1,12.9,18.8C259.7,262.4,261.1,263.2,261.3,260.9z"/>
			<path id="path2732" class="st5" d="M257,257.7c-14.5-9.5-24.8-4.2-28.9-4.7c-4-0.5-5.3,2.1,1.6,5.9c8.5,4.7,20.3,4,24.9,2.2
				C259.4,259.3,257.9,258.3,257,257.7z"/>
			<path id="path2734" class="st5" d="M278.9,264.1c-4.5-15.7-14.9-13.2-17.9-15.1s-3.4-1.4-2.7,2.1c1.3,6.3,12,13.2,17.3,15.2
				C277.4,267,279.8,268,278.9,264.1z"/>
			<path id="path2736" class="st5" d="M276.8,266.9c-12.5-10.1-22.2-2.6-26.1-3.7c-2.9-0.8-1.6,1.1-0.5,1.9c8,5.6,17.9,8.7,25.6,5.1
				C278.9,268.9,279,268.6,276.8,266.9z"/>
			<path id="path2738" class="st5" d="M303.8,277.1c0.2-10-20.3-14.1-24.6-20.2c-2.6-3.7-4.8-1.8-3.5,4.2c1.9,7.7,16,16.2,23.7,17.8
				C303.9,279.9,303.8,278.2,303.8,277.1z"/>
			<path id="path2740" class="st5" d="M303.1,278.9c-12.9-11.7-23.8-7.9-27.8-9c-4-1-5.6,1.4,0.6,6.3c7.7,5.8,19.5,6.9,24.5,5.8
				C305.4,280.8,304.1,279.7,303.1,278.9z"/>
			<path id="path2742" class="st5" d="M326.3,296.1c-3.7-17-15.3-20.5-18.2-23.8c-2.7-3.2-5.6-2.2-3.2,5.5
				c2.9,9.1,12.3,17.2,17.3,19.1C327,299,326.6,297.3,326.3,296.1z"/>
			<path id="path2744" class="st5" d="M326.2,298.3c-9.4-15.2-21.7-14.8-25.6-16.9c-3.7-2.2-6.2-0.3-1.3,6.3
				c5.8,8,17.6,12.5,23,12.8C327.8,300.9,326.8,299.4,326.2,298.3z"/>
			<path id="path2746" class="st5" d="M338.3,316.4c5.4-17.3-7-23.8-8.3-26.6c-1.4-2.9-2.9-2.9-3.7,0.2c-3.5,12.4,7.8,24.4,9.6,26.8
				C337.7,319,338,317.9,338.3,316.4z"/>
			<path id="path2748" class="st5" d="M335.8,321.3c-4.3-19.4-15.7-18.3-18.2-21c-2.7-2.7-3-0.8-2.6,2.7
				c1.3,9.5,12.6,15.9,17.7,19.1C334.3,323,336.2,324.2,335.8,321.3z"/>
			<path id="path2750" class="st5" d="M346.6,344.1c7.8-18.3-1.4-30.7-4.3-33.4c-2.9-2.6-4.6-3.7-3.7,0c1.3,5.6-3.2,20.1,3.7,30.7
				C344.5,344.9,344.9,348.2,346.6,344.1z"/>
			<path id="path2752" class="st5" d="M342.5,347.7c1.8-11.2-4.6-21.5-11.5-25.5c-4-2.4-4.2-1.8-4.2,1.6
				c0.3,10.4,10.1,19.1,12.9,23.9C342.5,352.2,342.3,348.9,342.5,347.7z"/>
			<path id="path2754" class="st5" d="M340.7,377c-5.8-21.2,6.2-33.4,9.9-35.8c3.5-2.6,5.8-3.5,4.2,0.5c-2.4,5.9,0.2,22.5-9,32.9
				C342.9,378.1,341.8,381.8,340.7,377z"/>
			<path id="path2756" class="st5" d="M342,372.3c4.8-18.5-5.6-28.9-8.8-31c-3-2.1-5-2.9-3.5,0.5c1.9,5.1-0.2,19.6,7.8,28.6
				C340.1,373.4,341,376.5,342,372.3z"/>
			<path id="path2758" class="st5" d="M336.1,363.6c-8.6,9.3-8.8,23-5,31c2.4,4.7,2.7,4.3,5,1c6.1-9.8,2.4-23.9,2.7-30.2
				C339,359.5,337,362.7,336.1,363.6z"/>
			<path id="path2760" class="st5" d="M350.3,378.4c0,12.8-7.8,23.3-16.1,26.5c-4.8,1.8-4.8,1.3-4.2-2.6
				c2.2-14.4,13.3-19.7,17.3-24.4C351.1,373.4,350.3,377.1,350.3,378.4z"/>
			<path id="path2762" class="st5" d="M320.6,416.6c14.1-12.8,6.6-21.8,7.2-30.2c0.3-4.5-1.4-3.4-3-1.8c-9,8.8-9.4,24.6-7.5,30.7
				C318,418.1,319.3,417.7,320.6,416.6z"/>
			<path id="path2764" class="st5" d="M339.4,408.3c-4.6,14.1-16.9,22.8-27.3,23.3c-6.1,0.3-5.9-0.2-3.8-4.3
				c7.8-15.1,21.7-16.9,28-20.7C342,403,339.9,406.8,339.4,408.3z"/>
			<path id="path2766" class="st5" d="M301.2,434.7c18.2-9.1,14.5-24.4,17.9-28.2c2.4-2.7-0.5-2.4-1.9-1.4
				c-10.7,6.3-19.3,16.2-19.5,26.8C297.7,435.9,298,436.3,301.2,434.7z"/>
			<path id="path2768" class="st5" d="M276.3,451.8c23,3.7,33.7-13.8,40.4-15.4c3.5-0.8,1-2.2-0.8-2.4c-15.3-1.8-34.8,5.5-40.8,13.5
				C272.8,450.6,272.8,451.3,276.3,451.8z"/>
			<path id="path2770" class="st5" d="M299.6,424.3c-4.6,15.2-21.9,27.8-34.8,28.7c-6.1,0.5-6.1-0.2-3.8-4.2
				c10.4-18.9,28.5-22.1,34.8-27C301.2,417.7,300.1,422.9,299.6,424.3z"/>
			<path id="path2772" class="st5" d="M251,253.5c2.1-11.9,19.5-12.7,22.2-14.6c3.2-2.1,2.7,0,1.6,3.2c-3.2,8.3-14.1,11.7-19,12.7
				C251.8,255.5,250.6,255.8,251,253.5z"/>
			<path id="path2774" class="st5" d="M245.8,253.9c-1.8-12.2,15.5-18,17.6-20.7c2.4-2.9,2.7-1.1,1.6,2.2c-2.1,7.2-9.6,15.7-14.1,18
				C247.2,255.3,246.1,256.1,245.8,253.9z"/>
			<path id="path2776" class="st5" d="M231.5,260.9c-1.6-14.6,12.5-16.9,16.1-21.5c2.4-2.9,2.6-1.3,1.8,2.1
				c-1.6,7.4-8.6,16.1-12.9,18.8C233.1,262.4,231.7,263.2,231.5,260.9z"/>
			<path id="path2778" class="st5" d="M235.9,257.7c14.5-9.5,24.8-4.2,28.9-4.7c4-0.5,5.3,2.1-1.6,5.9c-8.5,4.7-20.3,4-24.9,2.2
				C233.5,259.3,234.9,258.3,235.9,257.7z"/>
			<path id="path2780" class="st5" d="M214,264.1c4.5-15.7,14.9-13.2,17.9-15.1c3-1.9,3.4-1.4,2.7,2.1c-1.3,6.3-12,13.2-17.3,15.2
				C215.4,267,213,268,214,264.1z"/>
			<path id="path2782" class="st5" d="M216,266.9c12.5-10.1,22.2-2.6,26.1-3.7c2.9-0.8,1.6,1.1,0.5,1.9c-8,5.6-17.9,8.7-25.6,5.1
				C214,268.9,213.8,268.6,216,266.9z"/>
			<path id="path2784" class="st5" d="M189,277.1c-0.2-10,20.3-14.1,24.6-20.2c2.6-3.7,4.8-1.8,3.5,4.2c-1.9,7.7-16,16.2-23.7,17.8
				C188.9,279.9,189,278.2,189,277.1z"/>
			<path id="path2786" class="st5" d="M189.7,278.9c12.9-11.7,23.8-7.9,27.8-9c4-1,5.6,1.4-0.6,6.3c-7.7,5.8-19.5,6.9-24.5,5.8
				C187.4,280.8,188.7,279.7,189.7,278.9z"/>
			<path id="path2788" class="st5" d="M166.5,296.1c3.7-17,15.3-20.5,18.2-23.8c2.7-3.2,5.6-2.2,3.2,5.5
				c-2.9,9.1-12.3,17.2-17.3,19.1C165.8,299,166.2,297.3,166.5,296.1z"/>
			<path id="path2790" class="st5" d="M166.6,298.3c9.4-15.2,21.7-14.8,25.6-16.9c3.7-2.2,6.2-0.3,1.3,6.3c-5.8,8-17.6,12.5-23,12.8
				C165,300.9,166,299.4,166.6,298.3z"/>
			<path id="path2792" class="st5" d="M154.5,316.4c-5.4-17.3,7-23.8,8.3-26.6c1.4-2.9,2.9-2.9,3.7,0.2c3.5,12.4-7.8,24.4-9.6,26.8
				C155.1,319,154.8,317.9,154.5,316.4z"/>
			<path id="path2794" class="st5" d="M157.1,321.3c4.3-19.4,15.7-18.3,18.2-21c2.7-2.7,3-0.8,2.6,2.7c-1.3,9.5-12.6,15.9-17.7,19.1
				C158.5,323,156.6,324.2,157.1,321.3z"/>
			<path id="path2796" class="st5" d="M146.2,344.1c-7.8-18.3,1.4-30.7,4.3-33.4c2.9-2.6,4.6-3.7,3.7,0c-1.3,5.6,3.2,20.1-3.7,30.7
				C148.3,344.9,147.9,348.2,146.2,344.1z"/>
			<path id="path2798" class="st5" d="M150.3,347.7c-1.8-11.2,4.6-21.5,11.5-25.5c4-2.4,4.2-1.8,4.2,1.6
				c-0.3,10.4-10.1,19.1-12.9,23.9C150.3,352.2,150.5,348.9,150.3,347.7z"/>
			<path id="path2800" class="st5" d="M152.1,377c5.8-21.2-6.2-33.4-9.9-35.8c-3.5-2.6-5.8-3.5-4.2,0.5c2.4,5.9-0.2,22.5,9,32.9
				C149.9,378.1,150.8,381.8,152.1,377z"/>
			<path id="path2802" class="st5" d="M150.8,372.3c-4.8-18.5,5.6-28.9,8.8-31c3-2.1,5-2.9,3.5,0.5c-1.9,5.1,0.2,19.6-7.8,28.6
				C152.7,373.4,151.8,376.5,150.8,372.3z"/>
			<path id="path2804" class="st5" d="M156.7,363.6c8.6,9.3,8.8,23,5,31c-2.4,4.7-2.7,4.3-5,1c-6.1-9.8-2.4-23.9-2.7-30.2
				C153.9,359.5,155.8,362.7,156.7,363.6z"/>
			<path id="path2806" class="st5" d="M142.5,378.4c0,12.8,7.8,23.3,16.1,26.5c4.8,1.8,4.8,1.3,4.2-2.6
				c-2.2-14.4-13.3-19.7-17.3-24.4C141.7,373.4,142.5,377.1,142.5,378.4z"/>
			<path id="path2808" class="st5" d="M172.2,416.6c-14.1-12.8-6.6-21.8-7.2-30.2c-0.3-4.5,1.4-3.4,3-1.8c9,8.8,9.4,24.6,7.5,30.7
				C174.8,418.1,173.5,417.7,172.2,416.6z"/>
			<path id="path2810" class="st5" d="M153.4,408.3c4.6,14.1,16.9,22.8,27.3,23.3c6.1,0.3,5.9-0.2,3.8-4.3
				c-7.8-15.1-21.7-16.9-28-20.7C150.8,403,152.9,406.8,153.4,408.3z"/>
			<path id="path2812" class="st5" d="M191.6,434.7c-18.2-9.1-14.5-24.4-17.9-28.2c-2.4-2.7,0.5-2.4,1.9-1.4
				c10.7,6.3,19.3,16.2,19.5,26.8C195.1,435.9,194.8,436.3,191.6,434.7z"/>
			<path id="path2814" class="st5" d="M216.5,451.8c-23,3.7-33.7-13.8-40.4-15.4c-3.5-0.8-1-2.2,0.8-2.4
				c15.3-1.8,34.8,5.5,40.8,13.5C220,450.6,220,451.3,216.5,451.8z"/>
			<path id="path2816" class="st5" d="M193.2,424.3c4.6,15.2,21.9,27.8,34.8,28.7c6.1,0.5,6.1-0.2,3.8-4.2
				c-10.4-18.9-28.5-22.1-34.8-27C191.6,417.7,192.7,422.9,193.2,424.3z"/>
		</g>
		<g id="g2818" transform="matrix(1.1355 0 0 1.0324 2.7256 -21.429)">
			<path id="path2820" class="st0" d="M273.4,268.3c-3-2.2-14.2-1-16.3-2.4C261.1,269.3,270.1,266.9,273.4,268.3z"/>
			<path id="path2822" class="st0" d="M300.4,274.1c-2.4-4.3-16.6-7.2-18.7-11.1C285.4,270.4,296.4,269.4,300.4,274.1z"/>
			<path id="path2824" class="st0" d="M298.4,279.1c-5.3-5.1-17.6-3-21.3-6.1C285.7,280.8,290.5,274.7,298.4,279.1z"/>
			<path id="path2826" class="st0" d="M267.5,256.3c3.4,1.8,7.5,3.5,9.6,7.7c-2.4-3.2-6.7-4.5-10.2-7.2
				C267,256.7,267.3,256.4,267.5,256.3z"/>
			<path id="path2828" class="st0" d="M319.9,289.3c-2.1-4.8-9.4-10.1-10.1-11.9C311.9,283.7,318,285.2,319.9,289.3z"/>
			<path id="path2830" class="st0" d="M321.8,297.8c-6.4-10.1-16.5-9-20.5-12.8C304.4,288.7,315.9,291.1,321.8,297.8z"/>
			<path id="path2832" class="st0" d="M336.7,313.4c0.5-10.8-7.5-14.8-7.8-20.9C328.7,299.8,337,309.5,336.7,313.4z"/>
			<path id="path2834" class="st0" d="M332.7,319.2c-1.6-9.3-12.5-10-14.4-15.4C318.3,308.9,331.1,314.2,332.7,319.2z"/>
			<path id="path2836" class="st0" d="M341.7,313.9c5.8,7.1,1.8,17.8,4.2,25.7C342.9,333.8,344.4,319.3,341.7,313.9z"/>
			<path id="path2838" class="st0" d="M332.2,344.1c8.6,9.3,5.1,19.7,8.6,24.2C336.6,362,337.2,349.8,332.2,344.1z"/>
			<path id="path2840" class="st0" d="M350.1,345.3c-7.4,8.2-2.9,20.5-6.7,26.3C347.7,366.7,347.1,351.4,350.1,345.3z"/>
			<path id="path2842" class="st0" d="M340.9,345.3c-1-9.5-9.8-14.4-10.5-19.6C329.4,330.9,338.8,338.9,340.9,345.3z"/>
			<path id="path2844" class="st0" d="M336.4,368c1.4,6.6-3.8,20.7-2.2,25C330.6,385.5,337.2,371.2,336.4,368z"/>
			<path id="path2846" class="st0" d="M347.7,383.1c-3.5,11.7-10.5,10.9-12.8,18C336.6,394.3,345.8,388.2,347.7,383.1z"/>
			<path id="path2848" class="st0" d="M324.9,388.5c-4.6,7.9-0.8,16.9-4.6,22.5C325.7,405.4,322.8,394.9,324.9,388.5z"/>
			<path id="path2850" class="st0" d="M336.1,410c-5.6,10.4-17.1,9.5-21.7,17C319,417.6,333.2,416,336.1,410z"/>
			<path id="path2852" class="st0" d="M315.8,408.7c-9.9,6.9-6.9,14.1-14.4,21.8C310.8,422.9,310,414.4,315.8,408.7z"/>
			<path id="path2854" class="st0" d="M311.1,436.7c-9.6-0.3-23.3,12.2-31.6,11.2C287.8,449.7,303.1,438.4,311.1,436.7z"/>
			<path id="path2856" class="st0" d="M295.6,425.4c-0.6,9.8-25.6,16.1-28.3,22.6C270.4,439.4,292.3,433,295.6,425.4z"/>
			<path id="path2858" class="st0" d="M239.2,244.9c-3.2-2.7-7-5-8.2-7.7c0.8,3.5,4,6.1,7.2,8.5C238.6,245.5,238.9,245,239.2,244.9z
				"/>
			<path id="path2860" class="st0" d="M233.8,247.8c-5-2.4-10.7-2.2-13.3-5.6c1.6,3.4,7,4.7,11.7,6.4
				C232.7,248.2,233.3,247.9,233.8,247.8z"/>
			<path id="path2862" class="st0" d="M219.4,268.3c3-2.2,14.2-1,16.3-2.4C231.7,269.3,222.7,266.9,219.4,268.3z"/>
			<path id="path2864" class="st0" d="M192.4,274.1c2.4-4.3,16.6-7.2,18.7-11.1C207.4,270.4,196.4,269.4,192.4,274.1z"/>
			<path id="path2866" class="st0" d="M194.5,279.1c5.3-5.1,17.6-3,21.3-6.1C207.1,280.8,202.3,274.7,194.5,279.1z"/>
			<path id="path2868" class="st0" d="M215.7,264c3-6.4,11.7-7.2,13.9-11.1C226.3,258.7,218.9,259.6,215.7,264z"/>
			<path id="path2870" class="st0" d="M240.3,258.3c8.8-4.2,17.4-0.6,21.6-2.6C256.8,258.5,244.6,257.2,240.3,258.3z"/>
			<path id="path2872" class="st0" d="M172.9,289.3c2.1-4.8,9.4-10.1,10.1-11.9C180.9,283.7,174.8,285.2,172.9,289.3z"/>
			<path id="path2874" class="st0" d="M171,297.8c6.4-10.1,16.5-9,20.5-12.8C188.4,288.7,176.9,291.1,171,297.8z"/>
			<path id="path2876" class="st0" d="M156.1,313.4c-0.5-10.8,7.5-14.8,7.8-20.9C164.1,299.8,155.8,309.5,156.1,313.4z"/>
			<path id="path2878" class="st0" d="M160.1,319.2c1.6-9.3,12.5-10,14.4-15.4C174.5,308.9,161.7,314.2,160.1,319.2z"/>
			<path id="path2880" class="st0" d="M151.1,313.9c-5.8,7.1-1.8,17.8-4.2,25.7C149.9,333.8,148.4,319.3,151.1,313.9z"/>
			<path id="path2882" class="st0" d="M160.6,344.1c-8.6,9.3-5.1,19.7-8.6,24.2C156.3,362,155.6,349.8,160.6,344.1z"/>
			<path id="path2884" class="st0" d="M142.7,345.3c7.4,8.2,2.9,20.5,6.7,26.3C145.1,366.7,145.7,351.4,142.7,345.3z"/>
			<path id="path2886" class="st0" d="M151.9,345.3c1-9.5,9.8-14.4,10.5-19.6C163.4,330.9,154,338.9,151.9,345.3z"/>
			<path id="path2888" class="st0" d="M156.4,368c-1.4,6.6,3.8,20.7,2.2,25C162.2,385.5,155.6,371.2,156.4,368z"/>
			<path id="path2890" class="st0" d="M145.1,383.1c3.5,11.7,10.5,10.9,12.8,18C156.3,394.3,147,388.2,145.1,383.1z"/>
			<path id="path2892" class="st0" d="M167.9,388.5c4.6,7.9,0.8,16.9,4.6,22.5C167.1,405.4,170,394.9,167.9,388.5z"/>
			<path id="path2894" class="st0" d="M156.7,410c5.6,10.4,17.1,9.5,21.7,17C173.8,417.6,159.6,416,156.7,410z"/>
			<path id="path2896" class="st0" d="M177,408.7c9.9,6.9,6.9,14.1,14.4,21.8C182,422.9,182.8,414.4,177,408.7z"/>
			<path id="path2898" class="st0" d="M181.7,436.7c9.6-0.3,23.3,12.2,31.6,11.2C205,449.7,189.7,438.4,181.7,436.7z"/>
			<path id="path2900" class="st0" d="M197.2,425.4c0.6,9.8,25.6,16.1,28.3,22.6C222.4,439.4,200.5,433,197.2,425.4z"/>
			<path id="path2902" class="st0" d="M233.5,258.7c1.9-8.7,11.5-10.3,12.8-15.4C245.8,248.7,234.4,254.8,233.5,258.7z"/>
			<path id="path2904" class="st0" d="M261.7,237.2c-1.4,6.6-11.8,10.3-13.3,15.2C249,245.7,259.7,241.8,261.7,237.2z"/>
			<path id="path2906" class="st0" d="M253.6,252.7c5-8,15.2-5.9,18.7-10.6C269.7,247.6,257.1,247.8,253.6,252.7z"/>
		</g>
		<path id="path12826" class="st6" d="M367.5,341.9c0,43-38.2,77.9-85.3,77.9s-85.3-34.9-85.3-77.9S235,264,282.2,264
			S367.5,298.9,367.5,341.9z"/>
		<g id="g12874" transform="matrix(1.089 .29066 -.31969 .99014 322.08 9.1715)">
			<path id="path12861" class="st7" d="M64.2,395.9l0,1c0,0.6-0.5,1.1-1.1,1.3c-1.6,0-3.7,0.2-5.6,0.2l0-6.1c2.1,0,4.2-0.2,5.6-0.3
				c0.6,0,1.1,0.5,1.1,1.1l0,0.8 M50.8,394l0-1c0-0.6,0.5-1.1,1.1-1.1c1.6,0.2,3.5,0.3,5.6,0.3l0,6.1c-1.9,0-3.8,0-5.6-0.2
				c-0.6-0.2-1.1-1.3-1.1-1.9"/>
			<path id="path12865" class="st0" d="M63,395.7l0,0.7c0,0.5-0.4,0.8-0.9,0.9c-1.3,0-3.1,0.1-4.7,0.1l0-4.4c1.7,0,3.5-0.1,4.7-0.2
				c0.5,0,0.9,0.3,0.9,0.8l0,0.6 M51.9,394.3l0-0.7c0-0.5,0.4-0.8,0.9-0.8c1.3,0.1,2.9,0.2,4.7,0.2l0,4.4c-1.6,0-3.2,0-4.7-0.1
				c-0.5-0.1-0.9-0.9-0.9-1.4"/>
		</g>
		<g id="g12878" transform="matrix(.95488 .55779 -.61350 .86818 618.66 131.41)">
			<path id="path12880" class="st7" d="M-132,408.4l0,1c0,0.6-0.5,1.1-1.1,1.3c-1.6,0-3.7,0.2-5.6,0.1l0-6.1c2.1,0,4.2-0.2,5.6-0.3
				c0.6,0,1.1,0.5,1.1,1.1l0,0.8 M-145.5,406.4l0-1c0-0.6,0.5-1.1,1.1-1.1c1.6,0.2,3.5,0.3,5.6,0.3l0,6.1c-1.9,0-3.8,0-5.6-0.2
				c-0.6-0.2-1.1-1.3-1.1-1.9"/>
			<path id="path12882" class="st0" d="M-133.2,408.2l0,0.7c0,0.5-0.4,0.8-0.9,0.9c-1.3,0-3.1,0.1-4.7,0.1l0-4.4
				c1.7,0,3.5-0.1,4.7-0.2c0.5,0,0.9,0.3,0.9,0.8l0,0.6 M-144.4,406.8l0-0.7c0-0.5,0.4-0.8,0.9-0.8c1.3,0.1,2.9,0.2,4.7,0.2l0,4.4
				c-1.6,0-3.2,0-4.7-0.1c-0.5-0.1-0.9-0.9-0.9-1.4"/>
		</g>
		<g id="g12884" transform="matrix(.74342 .77974 -.85762 .67591 865.37 324.65)">
			<path id="path12886" class="st7" d="M-316.8,475.6l0,1c0,0.6-0.5,1.1-1.1,1.3c-1.6,0-3.7,0.2-5.6,0.1l0-6.1
				c2.1,0,4.2-0.2,5.6-0.3c0.6,0,1.1,0.5,1.1,1.1l0,0.8 M-330.3,473.6l0-1c0-0.6,0.5-1.1,1.1-1.1c1.6,0.2,3.5,0.3,5.6,0.3l0,6.1
				c-1.9,0-3.8,0-5.6-0.2c-0.6-0.2-1.1-1.3-1.1-1.9"/>
			<path id="path12888" class="st0" d="M-318,475.4l0,0.7c0,0.5-0.4,0.8-0.9,0.9c-1.3,0-3.1,0.1-4.7,0.1l0-4.4
				c1.7,0,3.5-0.1,4.7-0.2c0.5,0,0.9,0.3,0.9,0.8l0,0.6 M-329.2,474l0-0.7c0-0.5,0.4-0.8,0.9-0.8c1.3,0.1,2.9,0.2,4.7,0.2l0,4.4
				c-1.6,0-3.2,0-4.7-0.1c-0.5-0.1-0.9-0.9-0.9-1.4"/>
		</g>
		<g id="g12890" transform="matrix(.47175 .93856 -1.0323 .42891 1042.2 573.25)">
			<path id="path12892" class="st7" d="M-475.2,592.1l0,1c0,0.6-0.5,1.1-1.1,1.3c-1.6,0-3.7,0.2-5.6,0.2l0-6.1
				c2.1,0,4.2-0.2,5.6-0.3c0.6,0,1.1,0.5,1.1,1.1l0,0.8 M-488.7,590.1l0-1c0-0.6,0.5-1.1,1.1-1.1c1.6,0.2,3.5,0.3,5.6,0.3l0,6.1
				c-1.9,0-3.9,0-5.6-0.2c-0.6-0.2-1.1-1.3-1.1-1.9"/>
			<path id="path12894" class="st0" d="M-476.4,591.9l0,0.7c0,0.5-0.4,0.8-0.9,0.9c-1.3,0-3.1,0.1-4.7,0.1l0-4.4
				c1.7,0,3.5-0.1,4.7-0.2c0.5,0,0.9,0.3,0.9,0.8l0,0.6 M-487.6,590.5l0-0.7c0-0.5,0.4-0.8,0.9-0.8c1.3,0.1,2.9,0.2,4.7,0.2l0,4.4
				c-1.6,0-3.2,0-4.7-0.1c-0.5-0.1-0.9-0.9-0.9-1.4"/>
		</g>
		<g id="g12896" transform="matrix(.16188 1.0214 -1.1234 .14718 1134.9 857.07)">
			<path id="path12898" class="st7" d="M-594.4,748.5l0,1c0,0.6-0.5,1.1-1.1,1.3c-1.6,0-3.7,0.2-5.6,0.2l0-6.1
				c2.1,0,4.2-0.2,5.6-0.3c0.6,0,1.1,0.5,1.1,1.1l0,0.8 M-607.9,746.6l0-1c0-0.6,0.5-1.1,1.1-1.1c1.6,0.2,3.5,0.3,5.6,0.3l0,6.1
				c-1.9,0-3.9,0-5.6-0.2c-0.6-0.2-1.1-1.3-1.1-1.9"/>
			<path id="path12900" class="st0" d="M-595.5,748.3l0,0.7c0,0.5-0.4,0.8-0.9,0.9c-1.3,0-3.1,0.1-4.7,0.1l0-4.3
				c1.7,0,3.5-0.1,4.7-0.2c0.5,0,0.9,0.3,0.9,0.8l0,0.6 M-606.8,746.9l0-0.7c0-0.5,0.4-0.8,0.9-0.8c1.3,0.1,2.9,0.2,4.7,0.2l0,4.3
				c-1.6,0-3.2,0-4.7-0.1c-0.5-0.1-0.9-0.9-0.9-1.4"/>
		</g>
		<g id="g12902" transform="matrix(-.16110 1.0215 -1.1235 -.14647 1135.9 1153.1)">
			<path id="path12904" class="st7" d="M-664.7,932.2l0,1c0,0.6-0.5,1.1-1.1,1.3c-1.6,0-3.7,0.2-5.6,0.2l0-6.1
				c2.1,0,4.2-0.2,5.6-0.3c0.6,0,1.1,0.5,1.1,1.1l0,0.8 M-678.1,930.3l0-1c0-0.6,0.5-1.1,1.1-1.1c1.6,0.2,3.5,0.3,5.6,0.3l0,6.1
				c-1.9,0-3.9,0-5.6-0.2c-0.6-0.2-1.1-1.3-1.1-1.9"/>
			<path id="path12906" class="st0" d="M-665.8,932l0,0.7c0,0.5-0.4,0.8-0.9,0.9c-1.3,0-3.1,0.1-4.7,0.1l0-4.3
				c1.7,0,3.5-0.1,4.7-0.2c0.5,0,0.9,0.3,0.9,0.8l0,0.6 M-677,930.7l0-0.7c0-0.5,0.4-0.8,0.9-0.8c1.3,0.1,2.9,0.2,4.7,0.2l0,4.3
				c-1.6,0-3.2,0-4.7-0.1c-0.5-0.1-0.9-0.9-0.9-1.4"/>
		</g>
		<g id="g12908" transform="matrix(-.47103 .93886 -1.0326 -.42826 1045.1 1437.5)">
			<path id="path12910" class="st7" d="M-680.4,1128.3l0,1c0,0.6-0.5,1.1-1.1,1.3c-1.6,0-3.7,0.2-5.6,0.2l0-6.1
				c2.1,0,4.2-0.2,5.6-0.3c0.6,0,1.1,0.5,1.1,1.1l0,0.8 M-693.9,1126.4l0-1c0-0.6,0.5-1.1,1.1-1.1c1.6,0.2,3.5,0.3,5.6,0.3l0,6.1
				c-1.9,0-3.9,0-5.6-0.2c-0.6-0.2-1.1-1.3-1.1-1.9"/>
			<path id="path12912" class="st0" d="M-681.6,1128.2l0,0.7c0,0.5-0.4,0.8-0.9,0.9c-1.3,0-3.1,0.1-4.7,0.1l0-4.4
				c1.7,0,3.5-0.1,4.7-0.2c0.5,0,0.9,0.3,0.9,0.8l0,0.6 M-692.8,1126.8l0-0.7c0-0.5,0.4-0.8,0.9-0.8c1.3,0.1,2.9,0.2,4.7,0.2l0,4.4
				c-1.6,0-3.2,0-4.7-0.1c-0.5-0.1-0.9-0.9-0.9-1.4"/>
		</g>
		<g id="g12914" transform="matrix(-.74282 .78021 -.85814 -.67537 869.95 1687)">
			<path id="path12916" class="st7" d="M-640.2,1320.9l0,1c0,0.6-0.5,1.1-1.1,1.3c-1.6,0-3.7,0.2-5.6,0.2l0-6.1
				c2.1,0,4.2-0.2,5.6-0.3c0.6,0,1.1,0.5,1.1,1.1l0,0.8 M-653.7,1319l0-1c0-0.6,0.5-1.1,1.1-1.1c1.6,0.2,3.5,0.3,5.6,0.3l0,6.1
				c-1.9,0-3.8,0-5.6-0.1c-0.6-0.2-1.1-1.3-1.1-1.9"/>
			<path id="path12918" class="st0" d="M-641.4,1320.7l0,0.7c0,0.5-0.4,0.8-0.9,0.9c-1.3,0-3.1,0.1-4.7,0.1l0-4.4
				c1.7,0,3.5-0.1,4.7-0.2c0.5,0,0.9,0.3,0.9,0.8l0,0.6 M-652.5,1319.4l0-0.7c0-0.5,0.4-0.8,0.9-0.8c1.3,0.1,2.9,0.2,4.7,0.2l0,4.4
				c-1.6,0-3.2,0-4.7-0.1c-0.5-0.1-0.9-0.9-0.9-1.4"/>
		</g>
		<g id="g12920" transform="matrix(-.95446 .55839 -.61416 -.86779 624.54 1881.6)">
			<path id="path12922" class="st7" d="M-547.4,1494.4l0,1c0,0.6-0.5,1.1-1.1,1.3c-1.6,0-3.7,0.2-5.6,0.2l0-6.1
				c2.1,0,4.2-0.2,5.6-0.3c0.6,0,1.1,0.5,1.1,1.1l0,0.8 M-560.8,1492.5l0-1c0-0.6,0.5-1.1,1.1-1.1c1.6,0.2,3.5,0.3,5.6,0.3l0,6.1
				c-1.9,0-3.8,0-5.6-0.1c-0.6-0.2-1.1-1.3-1.1-1.9"/>
			<path id="path12924" class="st0" d="M-548.5,1494.2l0,0.7c0,0.5-0.4,0.8-0.9,0.9c-1.3,0-3.1,0.1-4.7,0.1l0-4.4
				c1.7,0,3.5-0.1,4.7-0.2c0.5,0,0.9,0.3,0.9,0.8l0,0.6 M-559.7,1492.8l0-0.7c0-0.5,0.4-0.8,0.9-0.8c1.3,0.1,2.9,0.2,4.7,0.2l0,4.4
				c-1.6,0-3.2,0-4.7-0.1c-0.5-0.1-0.9-0.9-0.9-1.4"/>
		</g>
		<g id="g12926" transform="matrix(-1.0888 .29135 -.32045 -.98993 328.78 2005.5)">
			<path id="path12928" class="st7" d="M-409.4,1634.7l0,1c0,0.6-0.5,1.1-1.1,1.3c-1.6,0-3.7,0.2-5.6,0.2l0-6.1
				c2.1,0,4.2-0.2,5.6-0.3c0.6,0,1.1,0.5,1.1,1.1l0,0.8 M-422.9,1632.8l0-1c0-0.6,0.5-1.1,1.1-1.1c1.6,0.2,3.5,0.3,5.6,0.3l0,6.1
				c-1.9,0-3.8,0-5.6-0.2c-0.6-0.2-1.1-1.3-1.1-1.9"/>
			<path id="path12930" class="st0" d="M-410.6,1634.5l0,0.7c0,0.5-0.4,0.8-0.9,0.9c-1.3,0-3.1,0.1-4.7,0.1l0-4.4
				c1.7,0,3.5-0.1,4.7-0.2c0.5,0,0.9,0.3,0.9,0.8l0,0.6 M-421.8,1633.1l0-0.7c0-0.5,0.4-0.8,0.9-0.8c1.3,0.1,2.9,0.2,4.7,0.2l0,4.4
				c-1.6,0-3.2,0-4.7-0.1c-0.5-0.1-0.9-0.9-0.9-1.4"/>
		</g>
		<g id="g12932" transform="matrix(-1.135 .00072019 -.00079212 -1.0319 6.6183 2048.7)">
			<path id="path12934" class="st7" d="M-237.5,1730.5v1c0,0.6-0.5,1.1-1.1,1.3c-1.6,0-3.7,0.2-5.6,0.2l0-6.1c2.1,0,4.2-0.2,5.6-0.3
				c0.6,0,1.1,0.5,1.1,1.1v0.8 M-251,1728.6v-1c0-0.6,0.5-1.1,1.1-1.1c1.6,0.2,3.5,0.3,5.6,0.3l0,6.1c-1.9,0-3.8,0-5.6-0.2
				c-0.6-0.2-1.1-1.3-1.1-1.9"/>
			<path id="path12936" class="st0" d="M-238.7,1730.3v0.7c0,0.5-0.4,0.8-0.9,0.9c-1.3,0-3.1,0.1-4.7,0.1l0-4.4
				c1.7,0,3.5-0.1,4.7-0.2c0.5,0,0.9,0.3,0.9,0.8v0.6 M-249.8,1728.9v-0.7c0-0.5,0.4-0.8,0.9-0.8c1.3,0.1,2.9,0.2,4.7,0.2l0,4.4
				c-1.6,0-3.2,0-4.7-0.1c-0.5-0.1-0.9-0.9-0.9-1.4"/>
		</g>
		<g id="g12938" transform="matrix(-1.0918 -.28208 .31025 -.99262 -313.06 2009.9)">
			<path id="path12940" class="st7" d="M-55.3,1774.7l0,1c0,0.6-0.5,1.1-1.1,1.3c-1.6,0-3.7,0.2-5.6,0.2l0-6.1
				c2.1,0,4.2-0.2,5.6-0.3c0.6,0,1.1,0.5,1.1,1.1l0,0.8 M-68.8,1772.7l0-1c0-0.6,0.5-1.1,1.1-1.1c1.6,0.2,3.5,0.3,5.6,0.3l0,6.1
				c-1.9,0-3.8,0-5.6-0.2c-0.6-0.2-1.1-1.3-1.1-1.9"/>
			<path id="path12942" class="st0" d="M-56.5,1774.5l0,0.7c0,0.5-0.4,0.8-0.9,0.9c-1.3,0-3.1,0.1-4.7,0.1l0-4.4
				c1.7,0,3.5-0.1,4.7-0.2c0.5,0,0.9,0.3,0.9,0.8l0,0.6 M-67.6,1773.1l0-0.7c0-0.5,0.4-0.8,0.9-0.8c1.3,0.1,2.9,0.2,4.7,0.2l0,4.4
				c-1.6,0-3.2,0-4.7-0.1c-0.5-0.1-0.9-0.9-0.9-1.4"/>
		</g>
		<g id="g12944" transform="matrix(-.96016 -.55025 .60521 -.87297 -610.8 1890)">
			<path id="path12946" class="st7" d="M141.7,1764.9l0,1c0,0.6-0.5,1.1-1.1,1.3c-1.6,0-3.7,0.2-5.6,0.1l0-6.1
				c2.1,0,4.2-0.2,5.6-0.3c0.6,0,1.1,0.5,1.1,1.1l0,0.8 M128.2,1763l0-1c0-0.6,0.5-1.1,1.1-1.1c1.6,0.2,3.5,0.3,5.6,0.3l0,6.1
				c-1.9,0-3.8,0-5.6-0.2c-0.6-0.2-1.1-1.3-1.1-1.9"/>
			<path id="path12948" class="st0" d="M140.5,1764.8l0,0.7c0,0.5-0.4,0.8-0.9,0.9c-1.3,0-3.1,0.1-4.7,0.1l0-4.4
				c1.7,0,3.5-0.1,4.7-0.2c0.5,0,0.9,0.3,0.9,0.8l0,0.6 M129.3,1763.4l0-0.7c0-0.5,0.4-0.8,0.9-0.8c1.3,0.1,2.9,0.2,4.7,0.2l0,4.4
				c-1.6,0-3.2,0-4.7-0.1c-0.5-0.1-0.9-0.9-0.9-1.4"/>
		</g>
		<g id="g12950" transform="matrix(-.75081 -.77386 .85115 -.68264 -859.34 1698.7)">
			<path id="path12952" class="st7" d="M327.9,1700.1l0,1c0,0.6-0.5,1.1-1.1,1.3c-1.6,0-3.7,0.2-5.6,0.1l0-6.1
				c2.1,0,4.2-0.2,5.6-0.3c0.6,0,1.1,0.5,1.1,1.1l0,0.8 M314.4,1698.2l0-1c0-0.6,0.5-1.1,1.1-1.1c1.6,0.2,3.5,0.3,5.6,0.3l0,6.1
				c-1.9,0-3.8,0-5.6-0.2c-0.6-0.2-1.1-1.3-1.1-1.9"/>
			<path id="path12954" class="st0" d="M326.7,1699.9l0,0.7c0,0.5-0.4,0.8-0.9,0.9c-1.3,0-3.1,0.1-4.7,0.1l0-4.4
				c1.7,0,3.5-0.1,4.7-0.2c0.5,0,0.9,0.3,0.9,0.8l0,0.6 M315.5,1698.5l0-0.7c0-0.5,0.4-0.8,0.9-0.8c1.3,0.1,2.9,0.2,4.7,0.2l0,4.4
				c-1.6,0-3.2,0-4.7-0.1c-0.5-0.1-0.9-0.9-0.9-1.4"/>
		</g>
		<g id="g12956" transform="matrix(-.48067 -.93481 1.0282 -.43702 -1038.6 1451.5)">
			<path id="path12958" class="st7" d="M488.3,1585.5l0,1c0,0.6-0.5,1.1-1.1,1.3c-1.6,0-3.7,0.2-5.6,0.2l0-6.1
				c2.1,0,4.2-0.2,5.6-0.3c0.6,0,1.1,0.5,1.1,1.1l0,0.8 M474.8,1583.5l0-1c0-0.6,0.5-1.1,1.1-1.1c1.6,0.2,3.5,0.3,5.6,0.3l0,6.1
				c-1.9,0-3.9,0-5.6-0.2c-0.6-0.2-1.1-1.3-1.1-1.9"/>
			<path id="path12960" class="st0" d="M487.2,1585.3l0,0.7c0,0.5-0.4,0.8-0.9,0.9c-1.3,0-3.1,0.1-4.7,0.1l0-4.4
				c1.7,0,3.5-0.1,4.7-0.2c0.5,0,0.9,0.3,0.9,0.8l0,0.6 M475.9,1583.9l0-0.7c0-0.5,0.4-0.8,0.9-0.8c1.3,0.1,2.9,0.2,4.7,0.2l0,4.4
				c-1.6,0-3.2,0-4.7-0.1c-0.5-0.1-0.9-0.9-0.9-1.4"/>
		</g>
		<g id="g12962" transform="matrix(-.17160 -1.0201 1.1219 -.15602 -1133.9 1168.4)">
			<path id="path12964" class="st7" d="M609.9,1430.3l0,1c0,0.6-0.5,1.1-1.1,1.3c-1.6,0-3.7,0.2-5.6,0.2l0-6.1
				c2.1,0,4.2-0.2,5.6-0.3c0.6,0,1.1,0.5,1.1,1.1l0,0.8 M596.4,1428.4l0-1c0-0.6,0.5-1.1,1.1-1.1c1.6,0.2,3.5,0.3,5.6,0.3l0,6.1
				c-1.9,0-3.9,0-5.6-0.2c-0.6-0.2-1.1-1.3-1.1-1.9"/>
			<path id="path12966" class="st0" d="M608.7,1430.1l0,0.7c0,0.5-0.4,0.8-0.9,0.9c-1.3,0-3.1,0.1-4.7,0.1l0-4.3
				c1.7,0,3.5-0.1,4.7-0.2c0.5,0,0.9,0.3,0.9,0.8l0,0.6 M597.5,1428.7l0-0.7c0-0.5,0.4-0.8,0.9-0.8c1.3,0.1,2.9,0.2,4.7,0.2l0,4.3
				c-1.6,0-3.2,0-4.7-0.1c-0.5-0.1-0.9-0.9-0.9-1.4"/>
		</g>
		<g id="g12968" transform="matrix(.15136 -1.0227 1.1248 .13762 -1137.7 872.37)">
			<path id="path12970" class="st7" d="M682.9,1247.2l0,1c0,0.6-0.5,1.1-1.1,1.3c-1.6,0-3.7,0.2-5.6,0.2l0-6.1
				c2.1,0,4.2-0.2,5.6-0.3c0.6,0,1.1,0.5,1.1,1.1l0,0.8 M669.4,1245.3l0-1c0-0.6,0.5-1.1,1.1-1.1c1.6,0.2,3.5,0.3,5.6,0.3l0,6.1
				c-1.9,0-3.9,0-5.6-0.2c-0.6-0.2-1.1-1.3-1.1-1.9"/>
			<path id="path12972" class="st0" d="M681.7,1247l0,0.7c0,0.5-0.4,0.8-0.9,0.9c-1.3,0-3.1,0.1-4.7,0.1l0-4.3
				c1.7,0,3.5-0.1,4.7-0.2c0.5,0,0.9,0.3,0.9,0.8l0,0.6 M670.5,1245.6l0-0.7c0-0.5,0.4-0.8,0.9-0.8c1.3,0.1,2.9,0.2,4.7,0.2l0,4.3
				c-1.6,0-3.2,0-4.7-0.1c-0.5-0.1-0.9-0.9-0.9-1.4"/>
		</g>
		<g id="g12974" transform="matrix(.46207 -.94253 1.0367 .42011 -1049.7 587.33)">
			<path id="path12976" class="st7" d="M701.3,1050.9l0,1c0,0.6-0.5,1.1-1.1,1.3c-1.6,0-3.7,0.2-5.6,0.2l0-6.1
				c2.1,0,4.2-0.2,5.6-0.3c0.6,0,1.1,0.5,1.1,1.1l0,0.8 M687.8,1049l0-1c0-0.6,0.5-1.1,1.1-1.1c1.6,0.2,3.5,0.3,5.6,0.3l0,6.1
				c-1.9,0-3.9,0-5.6-0.2c-0.6-0.2-1.1-1.3-1.1-1.9"/>
			<path id="path12978" class="st0" d="M700.2,1050.7l0,0.7c0,0.5-0.4,0.8-0.9,0.9c-1.3,0-3.1,0.1-4.7,0.1l0-4.4
				c1.7,0,3.5-0.1,4.7-0.2c0.5,0,0.9,0.3,0.9,0.8l0,0.6 M688.9,1049.4l0-0.7c0-0.5,0.4-0.8,0.9-0.8c1.3,0.1,2.9,0.2,4.7,0.2l0,4.4
				c-1.6,0-3.2,0-4.7-0.1c-0.5-0.1-0.9-0.9-0.9-1.4"/>
		</g>
		<g id="g12980" transform="matrix(.73536 -.78603 .86454 .66859 -876.89 336.39)">
			<path id="path12982" class="st7" d="M663.8,857.5l0,1c0,0.6-0.5,1.1-1.1,1.3c-1.6,0-3.7,0.2-5.6,0.2l0-6.1c2.1,0,4.2-0.2,5.6-0.3
				c0.6,0,1.1,0.5,1.1,1.1l0,0.8 M650.3,855.6l0-1c0-0.6,0.5-1.1,1.1-1.1c1.6,0.2,3.5,0.3,5.6,0.3l0,6.1c-1.9,0-3.8,0-5.6-0.1
				c-0.6-0.2-1.1-1.3-1.1-1.9"/>
			<path id="path12984" class="st0" d="M662.6,857.3l0,0.7c0,0.5-0.4,0.8-0.9,0.9c-1.3,0-3.1,0.1-4.7,0.1l0-4.4
				c1.7,0,3.5-0.1,4.7-0.2c0.5,0,0.9,0.3,0.9,0.8l0,0.6 M651.4,855.9l0-0.7c0-0.5,0.4-0.8,0.9-0.8c1.3,0.1,2.9,0.2,4.7,0.2l0,4.4
				c-1.6,0-3.2,0-4.7-0.1c-0.5-0.1-0.9-0.9-0.9-1.4"/>
		</g>
		<g id="g12986" transform="matrix(.94910 -.56588 .62240 .86292 -633.34 139.86)">
			<path id="path12988" class="st7" d="M573.3,682.4l0,1c0,0.6-0.5,1.1-1.1,1.3c-1.6,0-3.7,0.2-5.6,0.2l0-6.1c2.1,0,4.2-0.2,5.6-0.3
				c0.6,0,1.1,0.5,1.1,1.1l0,0.8 M559.8,680.5l0-1c0-0.6,0.5-1.1,1.1-1.1c1.6,0.2,3.5,0.3,5.6,0.3l0,6.1c-1.9,0-3.8,0-5.6-0.1
				c-0.6-0.2-1.1-1.3-1.1-1.9"/>
			<path id="path12990" class="st0" d="M572.1,682.2l0,0.7c0,0.5-0.4,0.8-0.9,0.9c-1.3,0-3.1,0.1-4.7,0.1l0-4.4
				c1.7,0,3.5-0.1,4.7-0.2c0.5,0,0.9,0.3,0.9,0.8l0,0.6 M560.9,680.9l0-0.7c0-0.5,0.4-0.8,0.9-0.8c1.3,0.1,2.9,0.2,4.7,0.2l0,4.4
				c-1.6,0-3.2,0-4.7-0.1c-0.5-0.1-0.9-0.9-0.9-1.4"/>
		</g>
		<g id="g12992" transform="matrix(1.086 -.29991 .32987 .98737 -338.77 13.655)">
			<path id="path12994" class="st7" d="M437.1,539.9l0,1c0,0.6-0.5,1.1-1.1,1.3c-1.6,0-3.7,0.2-5.6,0.2l0-6.1c2.1,0,4.2-0.2,5.6-0.3
				c0.6,0,1.1,0.5,1.1,1.1l0,0.8 M423.7,538l0-1c0-0.6,0.5-1.1,1.1-1.1c1.6,0.2,3.5,0.3,5.6,0.3l0,6.1c-1.9,0-3.8,0-5.6-0.2
				c-0.6-0.2-1.1-1.3-1.1-1.9"/>
			<path id="path12996" class="st0" d="M436,539.8l0,0.7c0,0.5-0.4,0.8-0.9,0.9c-1.3,0-3.1,0.1-4.7,0.1l0-4.4c1.7,0,3.5-0.1,4.7-0.2
				c0.5,0,0.9,0.3,0.9,0.8l0,0.6 M424.8,538.4l0-0.7c0-0.5,0.4-0.8,0.9-0.8c1.3,0.1,2.9,0.2,4.7,0.2l0,4.4c-1.6,0-3.2,0-4.7-0.1
				c-0.5-0.1-0.9-0.9-0.9-1.4"/>
		</g>
		<g id="g12998" transform="matrix(1.1349 -.0096543 .010618 1.0319 -17.033 -32.001)">
			<path id="path13000" class="st7" d="M266.4,441.5l0,1c0,0.6-0.5,1.1-1.1,1.3c-1.6,0-3.7,0.2-5.6,0.2l0-6.1c2.1,0,4.2-0.2,5.6-0.3
				c0.6,0,1.1,0.5,1.1,1.1l0,0.8 M253,439.6l0-1c0-0.6,0.5-1.1,1.1-1.1c1.6,0.2,3.5,0.3,5.6,0.3l0,6.1c-1.9,0-3.8,0-5.6-0.2
				c-0.6-0.2-1.1-1.3-1.1-1.9"/>
			<path id="path13002" class="st0" d="M265.3,441.4l0,0.7c0,0.5-0.4,0.8-0.9,0.9c-1.3,0-3.1,0.1-4.7,0.1l0-4.4
				c1.7,0,3.5-0.1,4.7-0.2c0.5,0,0.9,0.3,0.9,0.8l0,0.6 M254.1,440l0-0.7c0-0.5,0.4-0.8,0.9-0.8c1.3,0.1,2.9,0.2,4.7,0.2l0,4.4
				c-1.6,0-3.2,0-4.7-0.1c-0.5-0.1-0.9-0.9-0.9-1.4"/>
		</g>
	</g>
</g>
</svg>
