<svg id="b2f66b3e-fd13-4945-af0a-58ad9b242442" data-name="flag" xmlns="http://www.w3.org/2000/svg" viewBox="0 0 640 480"><defs><style>.b855e33d-8281-4c31-b1fc-21dbba8652be{fill:#da2032;}.ebe26bf5-034d-4f79-a2e2-9b9b7606cf70{fill:#0066b3;}.b06699e2-6a99-4980-b505-a1f3893b7493{fill:#ffd900;}</style></defs><path class="b855e33d-8281-4c31-b1fc-21dbba8652be" d="M0,0H640V480H0Z"/><path class="ebe26bf5-034d-4f79-a2e2-9b9b7606cf70" d="M213.33,0H426.67V480H213.33Z"/><path class="b06699e2-6a99-4980-b505-a1f3893b7493" d="M48,224.33H74.67v128H48Zm90.67,0h26.66v128H138.67ZM80,336.33l26.67,16,26.66-16Zm0-16h53.33V331H80Zm0-96,26.67,16,26.66-16Zm0,21.34h53.33v10.66H80Zm39.33,19.23a15.71,15.71,0,0,1-12.66,25,12.53,12.53,0,1,0,0,25.06,26.65,26.65,0,0,0,12.66-50.1Zm-12.66,32.24a5.33,5.33,0,1,1-5.34,5.33A5.33,5.33,0,0,1,106.67,297.14Z"/><path class="b06699e2-6a99-4980-b505-a1f3893b7493" d="M94,311.77a15.72,15.72,0,0,1,12.67-25,12.53,12.53,0,0,0,0-25.06A26.65,26.65,0,0,0,94,311.77Zm12.67-32.24A5.34,5.34,0,1,1,112,274.2,5.34,5.34,0,0,1,106.67,279.53ZM77.39,189.08l-.06.59a29.34,29.34,0,0,0,58.67,0v-.54a31.95,31.95,0,0,1-58.61,0Z"/><circle class="b06699e2-6a99-4980-b505-a1f3893b7493" cx="106.69" cy="181.67" r="21.33"/><path class="b06699e2-6a99-4980-b505-a1f3893b7493" d="M108.91,112.34a6.42,6.42,0,0,0-3.86,5.53c-.13,1.82.67,3.87.75,5.65,0,3.06-3.16,4.07-3.16,8.43,0,1.51,1.38,3.16,1.38,7.06a2.67,2.67,0,0,1-5.33,0,2.68,2.68,0,0,1,.74-1.84,2.23,2.23,0,0,1,.27-.26c.61-.62,1.44-.86,1.44-2.47,0-.84-.54-1.59-1.06-3.07a6.17,6.17,0,0,1,1-5.23,6.74,6.74,0,0,0-3.61,4.12c-.62,2-.08,3.11-.93,4.75a18.49,18.49,0,0,1-1.71,2.39,10.15,10.15,0,0,0-1.5,4.27A13.33,13.33,0,0,0,106.69,155h0A13.33,13.33,0,0,0,120,141.67h0a10.13,10.13,0,0,0-1.49-4.27A19.58,19.58,0,0,1,116.8,135c-.83-1.64-.3-2.78-.91-4.75a6.74,6.74,0,0,0-3.61-4.12,6.13,6.13,0,0,1,1,5.23c-.51,1.48-1.06,2.23-1.06,3.07,0,1.61.83,1.85,1.44,2.47a2.23,2.23,0,0,1,.27.26,2.66,2.66,0,0,1-1.93,4.5,2.65,2.65,0,0,1-2.66-2.66c0-5.14,2.19-5.46,2.19-9.26,0-5.43-4.86-8-4.86-12a7.39,7.39,0,0,1,2.22-5.45Z"/></svg>