<svg xmlns="http://www.w3.org/2000/svg" xmlns:xlink="http://www.w3.org/1999/xlink" viewBox="0 0 320 500"><defs><style>.cls-1{fill:none;}.cls-2{fill:#1f589e;}.cls-3{clip-path:url(#clip-path);}.cls-4,.cls-6{opacity:0.5;}.cls-5,.cls-6,.cls-7{fill:#1e73d8;}.cls-7{opacity:0.75;}</style><clipPath id="clip-path"><rect class="cls-1" width="320" height="500"/></clipPath></defs><title>login-bg</title><g id="bg"><rect class="cls-2" width="320" height="500"/></g><g id="c"><g class="cls-3"><g class="cls-4"><polygon class="cls-5" points="81.89 0 0 0 0 184 81.89 0"/><polygon class="cls-6" points="493 0 0 0 0 56.07 332.63 99.9 493 0"/><polygon class="cls-6" points="169.99 0 0 0 0 35.61 37 101 169.99 0"/><polygon class="cls-6" points="81.89 0 352.38 0 332.63 99.9 81.89 0"/><polygon class="cls-6" points="240 198 0 359 37 101 240 198"/><polygon class="cls-7" points="196.91 500.01 519 500.01 519 138 196.91 500.01"/><polygon class="cls-6" points="64.42 500.01 425 500 265.21 421.94 64.42 500.01"/></g></g></g></svg>