<svg xmlns="http://www.w3.org/2000/svg" xmlns:xlink="http://www.w3.org/1999/xlink" viewBox="0 0 100 24"><defs><style>.cls-1{fill:none;}.cls-2{clip-path:url(#clip-path);}.cls-3,.cls-4{opacity:0.5;}.cls-4{fill:#1e73d8;}.cls-5{fill:#049bc1;}.cls-6{clip-path:url(#clip-path-2);}.cls-7{fill:#fff;}</style><clipPath id="clip-path"><rect class="cls-1" x="-340" width="320" height="500"/></clipPath><clipPath id="clip-path-2"><circle class="cls-1" cx="11.36" cy="12" r="11.36" transform="translate(-3.03 3.89) rotate(-17.16)"/></clipPath></defs><title>logo-cesim-blue</title><g id="c"><g class="cls-2"><g class="cls-3"><polygon class="cls-4" points="153 0 -340 0 -340 56.07 -7.37 99.9 153 0"/><polygon class="cls-4" points="-258.11 0 12.38 0 -7.37 99.9 -258.11 0"/></g></g><path class="cls-5" d="M27.41,13.22c0,4.17,3.09,4.64,4.83,4.64l10.85,0c.08,0,0-.05,0-.06a3.78,3.78,0,0,1-1.28-1.51H33.27c-2.34,0-3.92-.58-3.92-3.15V10.72c0-2.86,1.71-3.13,3.53-3.13h8.05V6H33.16c-2.83,0-5.76.48-5.75,4.65v2.56Z"/><path class="cls-5" d="M58.89,17.82h8.9c2.37,0,5.34-.12,5.33-3.34v-.05c0-3.11-2-3.4-4.89-3.39H63.12c-2,0-2.34-.54-2.34-1.49V9.12c0-1.3.6-1.57,3.37-1.58h6.73V6H64.67c-4.77,0-5.83,1-5.83,2.91v.67c0,2.19,1,3.06,3.74,3.06h6c2.32,0,2.64.61,2.64,1.71v.09c0,1.71-.92,1.83-3.83,1.83H58.89v1.58Z"/><path class="cls-5" d="M72.51,7.53c2.84,0,2.61,1.28,2.61,2.61v7.65h1.94V9.91c0-2.61-.75-4-3.85-4H72.5V7.53Z"/><path class="cls-5" d="M74.55,3.18A1.49,1.49,0,1,1,76,4.67a1.48,1.48,0,0,1-1.49-1.49Z"/><path class="cls-5" d="M55.32,11l-10.83,0c.18-2.62.9-3.49,4-3.49h2.84c3.15,0,4,1.5,4,2.67V11Zm-12.76,2.1c0,4.23,2.89,4.7,5.41,4.69h9.3V16.24l-8.12,0c-3.38,0-4.64-.29-4.65-2.9v-.72l12.77,0V11c0-4.1-2.51-5-6-5h-3.1c-2.75,0-5.63.48-5.63,4.65v2.5Z"/><path class="cls-5" d="M79.08,17.79H81V10.41c0-1.84,1.14-2.88,3.61-2.88h0c3.08,0,3.78.89,3.78,3.12v7.13H90.4v-7c0-1.84.52-3.28,3.71-3.28h.05c3.08,0,3.67,1.27,3.67,2.6v7.64H100l0-7.87c0-2.61-2.15-3.95-5.25-3.95H94c-2,0-3.52.57-4.24,2.12A3.72,3.72,0,0,0,86,6H84.08c-1.93,0-5,.57-5,4,0,1.13,0,7.87,0,7.87Z"/><path class="cls-5" d="M43.15,19.82h.92c.21,0,.44.08.44.4s-.17.39-.48.39h-.88v-.79ZM42.61,22h.54V21h1.07a.77.77,0,0,0,.83-.8.75.75,0,0,0-.84-.81H42.6V22Z"/><path class="cls-5" d="M45.59,22h.54V21h.93c.4,0,.45.26.45.63a.89.89,0,0,0,.07.4h.59a1.08,1.08,0,0,1-.11-.56c0-.37-.07-.64-.38-.7h0a.62.62,0,0,0,.43-.63c0-.4-.22-.7-.88-.7H45.58V22Zm.54-1.44v-.75h.94c.29,0,.47.1.47.37s-.16.38-.47.38Z"/><path class="cls-5" d="M49.61,21l.45-1.1L50.5,21Zm-1,1.06h.59l.26-.64h1.23l.27.64h.61l-1.16-2.6h-.65L48.59,22Z"/><path class="cls-5" d="M54.62,20.36c-.06-.56-.53-1-1.42-1a1.37,1.37,0,1,0-.06,2.74c1.07,0,1.41-.55,1.48-1.07H54a.74.74,0,0,1-.8.66.87.87,0,0,1-.92-.91c0-.68.38-1,.88-1a.77.77,0,0,1,.84.63Z"/><polygon class="cls-5" points="55.81 22 56.36 21.99 56.35 19.8 57.33 19.8 57.33 19.39 54.83 19.4 54.83 19.8 55.81 19.8 55.81 22"/><polygon class="cls-5" points="57.89 21.99 58.44 21.99 58.43 19.39 57.89 19.39 57.89 21.99"/><path class="cls-5" d="M61.91,20.35c-.06-.56-.52-1-1.42-1a1.37,1.37,0,1,0-.06,2.74c1.07,0,1.41-.55,1.48-1.07h-.59a.74.74,0,0,1-.8.66.87.87,0,0,1-.91-.91c0-.68.37-1,.87-1a.76.76,0,0,1,.84.63Z"/><polygon class="cls-5" points="62.54 21.99 64.83 21.98 64.82 21.57 63.08 21.58 63.08 20.86 64.72 20.85 64.72 20.45 63.08 20.45 63.08 19.79 64.79 19.79 64.79 19.38 62.53 19.39 62.54 21.99"/><polygon class="cls-5" points="66.74 21.98 67.25 21.98 67.22 19.83 67.23 19.83 68.19 21.98 68.66 21.98 69.62 19.83 69.62 19.83 69.6 21.98 70.12 21.98 70.11 19.37 69.33 19.38 68.43 21.4 67.52 19.38 66.73 19.38 66.74 21.98"/><path class="cls-5" d="M71.59,20.92l.45-1.1.45,1.1Zm-1,1h.59l.27-.64h1.22l.28.64h.61l-1.17-2.6h-.65L70.57,22Z"/><polygon class="cls-5" points="73.99 21.97 74.53 21.97 74.53 21.16 74.97 20.77 75.95 21.97 76.69 21.97 75.4 20.42 76.61 19.36 75.86 19.37 74.53 20.57 74.53 19.37 73.98 19.37 73.99 21.97"/><polygon class="cls-5" points="77.14 21.96 79.43 21.96 79.43 21.55 77.68 21.56 77.68 20.84 79.33 20.83 79.33 20.43 77.68 20.43 77.68 19.77 79.39 19.77 79.39 19.36 77.14 19.36 77.14 21.96"/><path class="cls-5" d="M79.92,20.09c0,1.07,1.91.51,1.91,1.15,0,.29-.31.38-.64.39s-.73-.17-.74-.51h-.59c0,.55.38.92,1.32.91.55,0,1.24-.17,1.24-.84,0-1.12-1.94-.53-1.94-1.14,0-.24.24-.36.61-.36s.64.22.66.42h.58c-.07-.75-.87-.82-1.27-.82-.63,0-1.15.22-1.14.8Z"/><path class="cls-5" d="M84.76,19.76h.92c.21,0,.44.08.44.4s-.17.39-.48.4h-.88v-.8ZM84.22,22h.55V21h1.07a.76.76,0,0,0,.83-.8.74.74,0,0,0-.84-.81h-1.6V22Z"/><path class="cls-5" d="M87.16,22h.55v-1h.93c.4,0,.45.26.45.64a.73.73,0,0,0,.07.39h.59a1.06,1.06,0,0,1-.11-.56c0-.37-.08-.64-.38-.7h0a.62.62,0,0,0,.42-.63c0-.4-.21-.7-.88-.7H87.16V22Zm.55-1.43v-.76h.94c.29,0,.47.1.47.37s-.17.38-.47.38Z"/><path class="cls-5" d="M91.7,22a1.38,1.38,0,1,0-1.53-1.37c0,.73.43,1.37,1.53,1.37Zm0-.41a1,1,0,1,1,1-1,.89.89,0,0,1-1,1Z"/><polygon class="cls-5" points="93.83 21.94 94.38 21.94 94.38 20.81 95.91 20.81 95.91 20.4 94.38 20.41 94.38 19.75 95.99 19.75 95.99 19.34 93.83 19.34 93.83 21.94"/><polygon class="cls-5" points="96.51 21.94 97.06 21.94 97.05 19.34 96.51 19.34 96.51 21.94"/><polygon class="cls-5" points="98.48 21.93 99.03 21.93 99.02 19.74 100 19.74 100 19.33 97.5 19.34 97.5 19.75 98.48 19.74 98.48 21.93"/><circle class="cls-5" cx="11.36" cy="12" r="11.36" transform="translate(-0.02 0.02) rotate(-0.08)"/><g class="cls-6"><path class="cls-7" d="M3.62,13.37c0,4.65,4,5.18,6.25,5.17h11l1-1.76H11.21c-3,0-5.52-.64-5.53-3.51V10.58c0-3.19,2.65-3.5,5-3.5h8.05V5.31H11.07c-3.67,0-7.46.54-7.46,5.19v2.86Z"/></g></g></svg>